<?xml version="1.0" standalone="no"?>
<!DOCTYPE svg PUBLIC "-//W3C//DTD SVG 1.1//EN" "http://www.w3.org/Graphics/SVG/1.1/DTD/svg11.dtd" >
<!--
2013-9-30: Created.
-->
<svg>
<metadata>
Created by iconfont
</metadata>
<defs>

<font id="iconfont" horiz-adv-x="1024" >
  <font-face
    font-family="iconfont"
    font-weight="500"
    font-stretch="normal"
    units-per-em="1024"
    ascent="896"
    descent="-128"
  />
    <missing-glyph />
    
    <glyph glyph-name="dingwei" unicode="&#58931;" d="M512 92.59008c12.32896 0 268.928 385.99168 268.928 534.48192C780.928 775.56224 660.49024 896 512 896 363.50976 896 243.072 775.56224 243.072 627.072 243.072 478.58176 499.67104 92.59008 512 92.59008zM384.8704 627.072c0 70.1952 56.9344 127.1296 127.1296 127.1296 70.20032 0 127.1296-56.9344 127.1296-127.1296 0-70.20032-56.9344-127.1296-127.1296-127.1296C441.8048 499.9424 384.8704 556.87168 384.8704 627.072zM706.39104 159.33952 706.39104 159.33952c58.48064-19.67104 95.22176-48.08704 95.22176-79.68768 0-59.38688-129.69984-107.5456-289.6128-107.5456-159.91296 0-289.6128 48.1536-289.6128 107.5456 0 31.60064 36.74112 60.01152 95.22176 79.68768-119.11168-26.42944-199.4752-76.38528-199.4752-133.6576C118.13376-59.17696 294.528-128 512-128c217.472 0 393.86624 68.82304 393.86624 153.68704C905.86624 82.95424 825.50272 132.91008 706.39104 159.33952z"  horiz-adv-x="1024" />

    
    <glyph glyph-name="fangda" unicode="&#58941;" d="M852.68743-70.232318 171.311547-70.232318c-62.714867 0-113.562988 50.846038-113.562988 113.558335L57.748558 724.675006c0 62.712297 50.848122 113.558335 113.562988 113.558335l681.376907 0c62.714867 0 113.562988-50.846038 113.562988-113.558335l0-681.348989C966.250418-19.38628 915.40332-70.232318 852.68743-70.232318zM909.469948 724.675006c0 31.356149-25.424061 56.779168-56.781494 56.779168L171.311547 781.454174c-31.357433 0-56.781494-25.423019-56.781494-56.779168l0-681.348989c0-31.357172 25.424061-56.779168 56.781494-56.779168l681.376907 0c31.358457 0 56.781494 25.423019 56.781494 56.779168L909.469948 724.675006zM824.297706 412.389584c-15.665413 0-28.390747 12.697183-28.390747 28.389584l0.887243 186.638771L604.102866 434.735521l-40.145947 40.144302 193.023924 193.016015L568.782006 667.895839c-15.693044 0-28.390747 12.697183-28.390747 28.389584s12.697704 28.389584 28.390747 28.389584l254.711349 0c7.929925 0 15.082105-3.27151 20.238756-8.53949 5.490263-4.657067 8.955319-11.449773 8.955319-19.850094l0-255.506255C852.68743 425.086767 839.989727 412.389584 824.297706 412.389584zM455.219017 43.326017 200.506645 43.326017c-7.929925 0-15.082105 3.270487-20.239779 8.538467-5.489239 4.65809-8.955319 11.423167-8.955319 19.850094L171.311547 327.220832c0 15.692401 12.726357 28.389584 28.390747 28.389584 15.69202 0 28.390747-12.697183 28.390747-28.389584l-0.887243-186.6664 192.690312 192.710047 40.173577-40.143279-193.050531-193.016015 188.198837 0c15.69202 0 28.390747-12.697183 28.390747-28.389584C483.608741 56.0232 470.911038 43.326017 455.219017 43.326017z"  horiz-adv-x="1024" />

    
    <glyph glyph-name="setting" unicode="&#58911;" d="M928 96h-420c-14.2 55.2-64.3 96-124 96-59.6 0-109.8-40.8-124-96h-164c-17.7 0-32-14.3-32-32s14.3-32 32-32h164c14.2-55.2 64.3-96 124-96 59.6 0 109.8 40.8 124 96h420c17.7 0 32 14.3 32 32s-14.3 32-32 32zM384-1c-35.9 0-65 29.1-65 65s29.1 65 65 65 65-29.1 65-65-29.1-65-65-65zM928 416h-164c-14.2 55.2-64.3 96-124 96s-109.8-40.8-124-96h-420c-17.7 0-32-14.3-32-32 0-17.7 14.3-32 32-32h420c14.2-55.2 64.3-96 124-96s109.8 40.8 124 96h164c17.7 0 32 14.3 32 32 0 17.7-14.3 32-32 32zM640 319c-35.9 0-65 29.1-65 65s29.1 65 65 65 65-29.1 65-65-29.1-65-65-65zM96 672h164c14.2-55.2 64.3-96 124-96 59.6 0 109.8 40.8 124 96h420c17.7 0 32 14.3 32 32s-14.3 32-32 32h-420c-14.2 55.2-64.3 96-124 96-59.6 0-109.8-40.8-124-96h-164c-17.7 0-32-14.3-32-32s14.3-32 32-32zM384 769c35.9 0 65-29.1 65-65s-29.1-65-65-65-65 29.1-65 65 29.1 65 65 65z"  horiz-adv-x="1024" />

    
    <glyph glyph-name="baocun" unicode="&#59179;" d="M871.6 888H146.8C66.8 888 2 823.2 2 742.8v-724.8c0-80 64.8-144.8 144.8-144.8h724.8c80 0 144.8 64.8 144.8 144.8V742.8c0 80.4-64.8 145.2-144.8 145.2z m-147.2-74.8V528H294.4V813.2h430zM944 18c0-40-32.4-72.4-72.4-72.4H147.2c-19.2 0-37.6 7.6-51.2 21.2-13.6 13.6-21.2 32-21.2 51.2V742.8c0 40 32.8 72.4 72.8 72.8H220v-290c0-40 32.4-72.4 72-72.4h434.8c40 0 72.4 32.4 72.4 72.4V815.6h72.4c40 0 72.4-32.4 72.4-72.4v-725.2z m0 0M582 596.8c20.8 0 37.6 16.8 37.6 37.6V706.8c0 20.8-16.8 37.6-37.6 37.6s-37.6-16.8-37.6-37.6v-72.4c0-20.8 16.8-37.6 37.6-37.6z m0 0"  horiz-adv-x="1024" />

    
    <glyph glyph-name="fanhui" unicode="&#59053;" d="M315.392 405.504c-11.776-11.776-11.776-31.232 0-43.008l347.136-348.16c12.288-12.288 32.256-12.288 44.544 0l0.512 0.512c12.288 12.288 12.288 32.256 0 45.056L384 384l323.584 324.096c12.288 12.288 12.288 32.256 0 45.056l-0.512 0.512c-12.288 12.288-32.256 12.288-44.544 0l-347.136-348.16z"  horiz-adv-x="1024" />

    
    <glyph glyph-name="guanbi" unicode="&#59054;" d="M512 451.072l-246.272 246.272c-18.432 18.432-48.64 18.432-67.072 0-18.432-18.432-18.432-48.64 0-67.072l246.272-246.272-246.272-246.272c-18.432-18.432-18.432-48.64 0-67.072 18.432-18.432 48.64-18.432 67.072 0l246.272 246.272 246.272-246.272c18.432-18.432 48.64-18.432 67.072 0 18.432 18.432 18.432 48.64 0 67.072l-246.272 246.272 246.272 246.272c18.432 18.432 18.432 48.64 0 67.072-18.432 18.432-48.64 18.432-67.072 0l-246.272-246.272z"  horiz-adv-x="1024" />

    
    <glyph glyph-name="paixuup" unicode="&#59055;" d="M512 546.816l325.632-325.632h-651.264z"  horiz-adv-x="1024" />

    
    <glyph glyph-name="paixudown" unicode="&#59056;" d="M512 143.36l-325.632 325.632h651.264z"  horiz-adv-x="1024" />

    
    <glyph glyph-name="qianjin" unicode="&#59057;" d="M708.608 362.496c11.776 11.776 11.776 31.232 0 43.008l-347.136 348.16c-12.288 12.288-32.256 12.288-44.544 0l-0.512-0.512c-12.288-12.288-12.288-32.256 0-45.056l323.584-324.096-323.584-324.096c-12.288-12.288-12.288-32.256 0-45.056l0.512-0.512c12.288-12.288 32.256-12.288 44.544 0l347.136 348.16z"  horiz-adv-x="1024" />

    
    <glyph glyph-name="daochu" unicode="&#59058;" d="M487.424 152.576c4.096-3.584 8.704-6.144 13.824-7.68 6.656-3.072 14.336-3.072 21.504 0 5.12 1.024 10.24 3.584 13.824 7.68l261.632 262.144c11.776 11.264 11.776 30.208 0 41.472-11.264 11.264-29.184 11.776-40.96 1.024-0.512 0-0.512-0.512-1.024-1.024l-217.6-218.112V704.512c0.512 14.848-10.752 27.136-25.6 27.648-14.848 0.512-27.136-10.752-27.648-25.6v-468.992l-217.6 218.112c-11.776 11.776-30.208 11.776-41.984 0-11.264-11.264-11.776-29.184-1.024-40.96 0.512 0 0.512-0.512 1.024-1.024l261.632-261.12z m345.088-63.488h-640.512c-14.848 0.512-27.136-10.752-27.648-25.6s10.752-27.136 25.6-27.648h643.072c14.848-0.512 27.136 10.752 27.648 25.6 0.512 14.848-10.752 27.136-25.6 27.648-1.024 0.512-2.048 0.512-2.56 0z"  horiz-adv-x="1024" />

    
    <glyph glyph-name="shouqi" unicode="&#59059;" d="M490.496 109.568c11.776-11.776 31.232-11.776 43.008 0l348.16 347.136c12.288 12.288 12.288 32.256 0 44.544l-0.512 0.512c-12.288 12.288-32.256 12.288-45.056 0l-324.096-323.584-324.096 323.584c-12.288 12.288-32.256 12.288-45.056 0l-0.512-0.512c-12.288-12.288-12.288-32.256 0-44.544l348.16-347.136z"  horiz-adv-x="1024" />

    
    <glyph glyph-name="shouhui" unicode="&#59060;" d="M734.72 415.744h-445.952c-17.408 0-31.744-14.336-31.744-31.744 0-17.408 14.336-31.744 31.744-31.744h445.952c17.408 0 31.744 14.336 31.744 31.744 0.512 17.408-13.824 31.744-31.744 31.744zM512-15.36c-220.16 0-399.36 179.2-399.36 399.36s179.2 399.36 399.36 399.36 399.36-179.2 399.36-399.36-179.2-399.36-399.36-399.36z m0 737.28c-186.368 0-337.92-151.552-337.92-337.92s151.552-337.92 337.92-337.92 337.92 151.552 337.92 337.92-151.552 337.92-337.92 337.92z"  horiz-adv-x="1024" />

    
    <glyph glyph-name="shezhi" unicode="&#59061;" d="M408.576 384c0 29.184 9.728 53.76 30.208 73.728s44.544 30.208 73.728 30.208 53.76-9.728 73.728-30.208c19.968-19.968 30.208-44.544 30.208-73.728 0-29.184-9.728-54.272-30.208-74.24-19.968-19.968-44.544-30.208-73.728-30.208s-53.76 9.728-73.728 30.208c-20.48 20.48-30.208 45.056-30.208 74.24z m-146.944-68.096c6.144-21.504 15.36-43.008 26.112-62.976l-68.608-84.48 77.824-77.824 84.48 68.608c19.968-11.264 41.472-19.968 63.488-26.624l11.264-107.52h112.128l11.264 107.52c21.504 6.656 42.496 15.872 63.488 26.624l83.968-68.608 78.336 77.824-69.12 84.48c10.752 19.968 19.968 40.96 26.624 62.976l107.52 11.776V439.808l-107.52 11.264c-6.656 21.504-15.872 41.984-26.624 62.976l69.12 84.48-78.336 78.336-83.968-69.12c-21.504 10.752-41.472 19.968-63.488 26.624l-11.264 107.52h-112.128l-11.264-107.52c-22.528-6.656-43.52-15.872-63.488-26.624l-84.48 69.12-77.824-78.336 68.608-84.48c-10.752-20.992-19.968-40.96-26.112-62.976l-108.032-11.264V327.68l108.032-11.776z"  horiz-adv-x="1024" />

    
    <glyph glyph-name="shanchu" unicode="&#59062;" d="M647.168 564.224l-135.168-135.168-135.168 135.168c-12.288 12.288-32.768 12.288-45.056 0-12.288-12.288-12.288-32.768 0-45.056l135.168-135.168-135.168-135.168c-12.288-12.288-12.288-32.768 0-45.056 12.288-12.288 32.768-12.288 45.056 0l135.168 135.168 135.168-135.168c12.288-12.288 32.768-12.288 45.056 0 12.288 12.288 12.288 32.768 0 45.056l-135.168 135.168 135.168 135.168c12.288 12.288 12.288 32.768 0 45.056-12.288 12.288-32.768 12.288-45.056 0zM794.624 101.888c-155.648-155.648-409.088-155.648-564.736 0-155.648 155.648-155.648 409.088 0 564.736 155.648 155.648 409.088 155.648 564.736 0 155.648-156.16 155.648-409.088 0-564.736z m-521.728 521.216c-131.584-131.584-131.584-346.112 0-477.696 131.584-131.584 346.112-131.584 477.696 0 131.584 131.584 131.584 346.112 0 477.696-131.584 131.584-345.6 131.584-477.696 0z"  horiz-adv-x="1024" />

    
    <glyph glyph-name="qingkong" unicode="&#59063;" d="M815.104 623.104h-169.984V728.064c0 22.016-17.92 39.936-39.936 39.936h-186.88c-22.016 0-39.936-17.92-39.936-39.936v-105.472h-169.984c-13.824 0-25.088-11.264-25.088-25.088s11.264-25.088 25.088-25.088h606.72c13.824 0 25.088 11.264 25.088 25.088 0.512 14.336-11.264 25.6-25.088 25.6z m-385.536 0V717.312h164.864v-94.208h-164.864z m296.96-110.08c-13.824 0-25.088-11.264-25.088-25.088v-437.248h-378.368V487.424c0 13.824-11.264 25.088-25.088 25.088s-25.088-11.264-25.088-25.088v-446.976c0-22.528 18.432-40.448 41.472-40.448h396.8c23.04 0 41.472 18.432 41.472 40.448V487.424c-1.024 14.336-12.288 25.6-26.112 25.6zM469.504 156.16V487.424c0 13.824-11.264 25.088-25.088 25.088s-25.088-11.264-25.088-25.088v-331.264c0-13.824 11.264-25.088 25.088-25.088s25.088 11.264 25.088 25.088z m135.168 0V487.424c0 13.824-11.264 25.088-25.088 25.088s-25.088-11.264-25.088-25.088v-331.264c0-13.824 11.264-25.088 25.088-25.088s25.088 11.264 25.088 25.088z"  horiz-adv-x="1024" />

    
    <glyph glyph-name="tianjia" unicode="&#59064;" d="M473.6 422.4h-280.064c-20.992 0-38.4-16.896-38.4-38.4 0-20.992 16.896-38.4 38.4-38.4h280.064v-280.064c0-20.992 16.896-38.4 38.4-38.4s38.4 16.896 38.4 38.4v280.064h280.064c20.992 0 38.4 16.896 38.4 38.4 0 20.992-16.896 38.4-38.4 38.4h-280.064V702.464c0 20.992-16.896 38.4-38.4 38.4-20.992 0-38.4-16.896-38.4-38.4v-280.064z"  horiz-adv-x="1024" />

    
    <glyph glyph-name="rili" unicode="&#59065;" d="M809.472 689.664h-94.208V711.68c0 15.872-12.8 28.672-28.672 28.672-15.872 0-28.672-12.8-28.672-28.672v-21.504h-291.84V711.68c0 15.872-12.8 28.672-28.672 28.672-15.872 0-28.672-12.8-28.672-28.672v-21.504h-93.696c-33.28 0-60.928-27.136-60.928-60.928v-540.672c0-33.28 27.136-60.928 60.928-60.928h594.944c33.28 0 60.928 27.136 60.928 60.928V628.736c-0.512 33.792-27.648 60.928-61.44 60.928z m3.072-601.088c0-1.536-1.536-3.072-3.072-3.072h-594.944c-1.536 0-3.072 1.536-3.072 3.072V485.376h601.6v-396.8z m0 454.656h-601.6V628.736c0 1.536 1.536 3.072 3.072 3.072h93.696v-16.384c0-15.872 12.8-28.672 28.672-28.672 15.872 0 28.672 12.8 28.672 28.672v16.384h291.84v-16.384c0-15.872 12.8-28.672 28.672-28.672 15.872 0 28.672 12.8 28.672 28.672v16.384h94.208c1.536 0 3.072-1.536 3.072-3.072v-85.504zM333.824 177.664h50.176c14.336 0 25.6 11.264 25.6 25.6s-11.264 25.6-25.6 25.6h-50.176c-14.336 0-25.6-11.264-25.6-25.6 0-13.824 11.264-25.6 25.6-25.6z m153.088 0h50.176c14.336 0 25.6 11.264 25.6 25.6s-11.264 25.6-25.6 25.6h-50.176c-14.336 0-25.6-11.264-25.6-25.6 0-13.824 11.264-25.6 25.6-25.6z m-153.088 154.624h50.176c14.336 0 25.6 11.264 25.6 25.6s-11.264 25.6-25.6 25.6h-50.176c-14.336 0-25.6-11.264-25.6-25.6s11.264-25.6 25.6-25.6z m153.088 0h50.176c14.336 0 25.6 11.264 25.6 25.6s-11.264 25.6-25.6 25.6h-50.176c-14.336 0-25.6-11.264-25.6-25.6s11.264-25.6 25.6-25.6z m152.064 0h50.176c14.336 0 25.6 11.264 25.6 25.6s-11.264 25.6-25.6 25.6h-50.176c-14.336 0-25.6-11.264-25.6-25.6s11.264-25.6 25.6-25.6z"  horiz-adv-x="1024" />

    
    <glyph glyph-name="xiala" unicode="&#59066;" d="M533.504 580.096c-11.776 11.776-31.232 11.776-43.008 0l-348.16-347.136c-12.288-12.288-12.288-32.256 0-44.544l0.512-0.512c12.288-12.288 32.256-12.288 45.056 0l324.096 323.584 324.096-323.584c12.288-12.288 32.256-12.288 45.056 0l0.512 0.512c12.288 12.288 12.288 32.256 0 44.544l-348.16 347.136z"  horiz-adv-x="1024" />

    
    <glyph glyph-name="zuobiaodian" unicode="&#59067;" d="M510.464 34.816c-9.216 0-17.92 4.096-24.064 11.264-9.216 10.752-18.944 22.016-29.696 33.792-93.696 107.008-220.672 246.272-220.672 377.856 0 152.064 123.904 275.968 275.968 275.968s275.968-123.904 275.968-275.968c0-133.632-133.12-275.456-229.376-384-8.704-9.728-16.896-19.456-24.576-28.16-5.632-6.656-14.336-10.752-23.552-10.752z"  horiz-adv-x="1024" />

    
    <glyph glyph-name="sousuo" unicode="&#59068;" d="M453.632 153.088c-159.744 0-289.28 129.536-289.28 289.28s129.536 289.28 289.28 289.28c76.8 0 150.528-30.72 204.288-84.48 113.152-113.152 113.152-295.936 0-409.088-53.76-54.784-127.488-84.992-204.288-84.992z m0 508.416c-120.832 0-219.136-98.304-219.136-219.136 0-58.368 23.04-113.664 64-155.136 82.944-82.944 226.816-82.944 309.76 0 85.504 85.504 85.504 224.256 0 309.76-40.448 41.472-96.256 64.512-154.624 64.512zM824.32 36.352c-9.216 0-18.432 3.584-24.576 10.24l-168.448 168.448c-13.824 13.824-13.824 35.84 0 49.664 13.824 13.824 35.84 13.824 49.664 0l168.448-168.448c13.824-13.824 13.824-35.84 0-49.664-6.656-6.144-15.872-10.24-25.088-10.24z"  horiz-adv-x="1024" />

    
    <glyph glyph-name="zhankai" unicode="&#59069;" d="M734.72 415.744h-190.976V606.72c0 17.408-14.336 31.744-31.744 31.744s-31.744-14.336-31.744-31.744v-190.976h-190.976c-17.408 0-31.744-14.336-31.744-31.744 0-17.408 14.336-31.744 31.744-31.744h190.976v-190.976c0-17.408 14.336-31.744 31.744-31.744s31.744 14.336 31.744 31.744v190.976h190.976c17.408 0 31.744 14.336 31.744 31.744 0.512 17.408-13.824 31.744-31.744 31.744zM512-15.36c-220.16 0-399.36 179.2-399.36 399.36s179.2 399.36 399.36 399.36 399.36-179.2 399.36-399.36-179.2-399.36-399.36-399.36z m0 737.28c-186.368 0-337.92-151.552-337.92-337.92s151.552-337.92 337.92-337.92 337.92 151.552 337.92 337.92-151.552 337.92-337.92 337.92z"  horiz-adv-x="1024" />

    
    <glyph glyph-name="tishi" unicode="&#59070;" d="M472.576 265.728h78.848v-78.848h-78.848v78.848z m0 315.392h78.848v-236.544h-78.848V581.12z m39.424 197.12c-216.576 0-394.24-177.664-394.24-394.24 0-217.088 175.616-394.24 394.24-394.24s394.24 177.664 394.24 394.24-177.664 394.24-394.24 394.24z m0-709.632c-173.568 0-315.392 141.824-315.392 315.392 0 173.568 141.824 315.392 315.392 315.392 173.568 0 315.392-141.824 315.392-315.392 0-173.568-141.824-315.392-315.392-315.392z"  horiz-adv-x="1024" />

    
    <glyph glyph-name="bianji" unicode="&#59071;" d="M891.392 5.12c0-15.36-10.752-27.648-23.552-27.648h-711.68c-12.8 0-23.552 12.288-23.552 27.648 0 15.36 10.752 27.648 23.552 27.648h711.68c13.312-0.512 23.552-12.8 23.552-27.648zM802.816 588.288c-10.24-10.752-27.648-10.752-38.4 0l-114.688 116.736c-10.752 10.752-10.752 28.16 0 38.912l38.4 38.912c10.24 10.752 27.648 10.752 38.4 0l115.2-116.736c10.24-10.752 10.24-28.16 0-38.912l-38.912-38.912zM380.928 160.768c-10.24-10.752-27.648-10.752-38.4 0l-115.2 116.736c-10.752 10.752-10.752 28.16 0 38.912l345.088 349.696c10.752 10.752 27.648 10.752 38.4 0l114.688-116.736c10.752-10.752 10.752-28.16 0-38.912l-344.576-349.696zM189.44 238.592c-10.752 10.752-21.504 7.168-24.576-7.68l-27.648-140.288c-3.072-14.848 6.656-24.576 21.504-21.504l138.752 28.16c14.848 3.072 17.92 14.336 7.168 25.088l-115.2 116.224z"  horiz-adv-x="1024" />

    


  </font>
</defs>
</svg>
